<?xml version="1.0" encoding="UTF-8"?>
<!DOCTYPE svg PUBLIC "-//W3C//DTD SVG 1.1//EN" "http://www.w3.org/Graphics/SVG/1.1/DTD/svg11.dtd">
<!-- Creator: CorelDRAW 2018 (64-Bit) -->
<svg xmlns="http://www.w3.org/2000/svg" xml:space="preserve" width="56.6613mm" height="35.3538mm" version="1.1" style="shape-rendering:geometricPrecision; text-rendering:geometricPrecision; image-rendering:optimizeQuality; fill-rule:evenodd; clip-rule:evenodd"
viewBox="0 0 15160.19 9459.19"
 xmlns:xlink="http://www.w3.org/1999/xlink">
 <defs>
  <style type="text/css">
   <![CDATA[
    .fil0 {fill:#FEFEFE;fill-rule:nonzero}
   ]]>
  </style>
 </defs>
 <g id="Слой_x0020_1">
  <metadata id="CorelCorpID_0Corel-Layer"/>
  <g id="_1834580806400">
   <g>
    <path class="fil0" d="M12049.64 3992.18l-5604 -249.44 5978.16 -471.81 -374.15 721.26zm543.92 -1048.56l0 0 -5702.06 -176.29 6078.41 -549.56 -376.35 725.86z"/>
    <path class="fil0" d="M15160.19 509.7c-5218.96,20.2 -10208.03,746.94 -11753.34,3007 -1424.13,2081.68 4356.65,2225.01 6841.65,2210.83l404.74 -791.7 -4505.04 -282.59 5813.37 -313.55 -1112.48 2133.24c-18033.28,2865.09 -11482.81,-9030.08 4311.11,-5963.23z"/>
   </g>
   <path class="fil0" d="M1991.03 8646.59l-305.58 0 -207.2 442.19c-11.93,25.47 -27.1,57.87 -64.53,83.34 -37.38,25.44 -65.18,25.44 -92.95,25.44l-395.88 0c-129.63,0 -226.81,-34.7 -231.04,-168.99 -1.61,-50.94 11.1,-162.06 121.77,-398.21 109.57,-233.79 198.8,-340.31 250.46,-391.22 115.67,-113.44 265.31,-175.95 441.28,-175.95l719.97 0 113.9 -243.1 -805.64 0c-155.1,0 -307.96,34.73 -437.89,99.56 -311.12,155.1 -476.52,453.75 -601.26,720 -106.33,226.86 -222.45,509.3 -102.72,673.68 44.82,62.5 137.15,127.33 317.73,127.33l689.87 0c46.31,0 122.27,-13.89 180.23,-48.62 42.03,-25.47 95.97,-76.41 135.04,-159.76l274.43 -585.71zm1397.88 794.09l113.9 -243.1 -865.84 0c-48.62,0 -84.58,-2.3 -94.42,-20.82 -8.45,-11.59 -5.81,-37.03 6.15,-62.5l177.9 -379.69 960.75 0 113.9 -243.08 -960.75 0 152.94 -326.42c10.84,-23.14 26.03,-55.57 62.34,-78.72 32.94,-20.84 66.41,-23.14 94.18,-23.14l875.1 0 113.93 -243.1 -1039.49 0c-62.5,0 -143.38,4.63 -223.73,62.53 -53.16,39.36 -104.4,104.16 -134.77,168.99l-538.03 1148.28c-29.3,62.53 -59.4,136.59 -28.76,189.86 29.38,50.92 91.88,50.92 161.34,50.92l1053.38 0zm2758.44 -1620.57l-296.32 0 -559.73 1194.59c-5.4,11.56 -18.43,39.36 -43.91,39.36 -20.84,0 -14.61,-23.14 -18.6,-39.36l-178.84 -1085.78c-11.45,-69.46 -53.78,-127.33 -197.3,-127.33 -152.8,0 -285.7,81.04 -350.77,219.93l-664.99 1419.15 296.35 0 557.56 -1189.96c15.2,-32.4 42.54,-46.29 54.13,-46.29 4.6,0 11.72,4.63 18.57,39.33l177.47 1078.85c18.6,113.44 100.36,136.59 197.59,136.59 131.96,0 271.14,-64.8 348.17,-229.19l660.6 -1409.9zm1075.45 1620.57l113.9 -243.1 -548.68 0c-192.16,0 -327.3,-27.77 -350.98,-155.08 -8.54,-50.94 -5.89,-150.5 108.01,-393.58 112.83,-240.78 211.99,-363.48 294.23,-435.24 157.7,-138.92 315.91,-150.47 496.48,-150.47l507 0 113.9 -243.1 -650.54 0c-115.75,0 -374.61,13.91 -625.6,203.75 -211.42,159.73 -344,398.18 -452.47,629.7 -83.56,178.27 -188.04,425.98 -115.5,597.3 71.28,168.99 272.19,189.83 427.32,189.83l682.94 0zm2003.18 -1639.09c-196.79,0 -465.34,0 -726.21,171.32 -254.05,166.69 -392.53,437.56 -495.57,657.47 -85.7,182.9 -223.49,476.92 -120.56,657.5 98.01,171.32 373.48,171.32 565.64,171.32 187.53,0 469.97,0 726.18,-171.32 242.62,-162.06 393.47,-444.49 493.27,-657.5 99.8,-212.98 215.95,-495.41 122.86,-657.47 -97.98,-171.32 -373.48,-171.32 -565.62,-171.32zm-906.94 828.79c116.07,-247.71 212.76,-375.04 312.16,-453.72 150.23,-118.07 309.54,-131.96 478.55,-131.96 164.36,0 317.59,13.89 357.19,131.96 21.65,62.5 18.19,173.62 -113.04,453.72 -122.6,261.62 -226.38,384.32 -311.09,451.45 -154.73,122.7 -315.26,134.29 -481.95,134.29 -169.02,0 -316.36,-11.59 -353.79,-134.29 -21.78,-67.13 -11.69,-187.53 111.97,-451.45z"/>
  </g>
 </g>
</svg>
